<svg id="Capa_1" enable-background="new 0 0 512 512" height="512" viewBox="0 0 512 512" width="512" xmlns="http://www.w3.org/2000/svg"><g><path d="m229.084 481.147c0-5.593 1.969-10.725 5.248-14.746v-50.467c-17.247-3.894-33.101-11.455-46.706-21.819v63.678h-15.629c-12.897 0-23.353 10.456-23.353 23.353s10.456 23.354 23.353 23.354h38.982c9.019 0 16.839-5.117 20.729-12.602-1.673-3.219-2.624-6.873-2.624-10.751z" fill="#17d9c3"/><path d="m268.066 418.728v39.066h-15.629c-12.897 0-23.353 10.456-23.353 23.353s10.456 23.353 23.353 23.353h38.982c12.897 0 23.353-10.456 23.353-23.353v-74.633c-14.226 6.992-30.016 11.287-46.706 12.214z" fill="#17d9c3"/><path d="m139.65 240.966h-42.919c-14.586 0-26.411 11.825-26.411 26.411 0 14.586 11.825 26.411 26.411 26.411h42.919z" fill="#17d9c3"/><path d="m417.291 431.404c-51.914-38.222-38.577-102.755-38.575-102.765-9.094 34.241-32.752 62.543-63.944 77.875 38.183 38.183 71.348 47.839 94.693 48.125 12.534.154 17.921-15.803 7.826-23.235z" fill="#17d9c3"/><path d="m261.219 55.434c-67.141 0-121.569 54.428-121.569 121.569v120.352c0 67.141 54.428 121.569 121.569 121.569 67.141 0 121.569-54.428 121.569-121.569v-120.352c-.001-67.141-54.429-121.569-121.569-121.569z" fill="#88f8d8"/><g><path d="m317.401 301.288h-51.913c-18.698 0-33.91-15.212-33.91-33.911 0-18.698 15.212-33.911 33.91-33.911h51.913c4.143 0 7.5 3.358 7.5 7.5s-3.357 7.5-7.5 7.5h-51.913c-10.427 0-18.91 8.483-18.91 18.911s8.483 18.911 18.91 18.911h51.913c4.143 0 7.5 3.358 7.5 7.5s-3.357 7.5-7.5 7.5z" fill="#007ea8"/></g><circle cx="288.511" cy="128.416" fill="#007ea8" r="10.648"/><circle cx="188.141" cy="128.416" fill="#007ea8" r="10.648"/><path d="m187.626 394.115v35.678c14.311 7.984 30.037 13.724 46.706 16.721v-30.58c-17.247-3.894-33.101-11.455-46.706-21.819z" fill="#007ea8"/><path d="m268.066 418.728v30.014c16.373-.732 32.076-4.075 46.706-9.62v-32.608c-14.226 6.992-30.016 11.287-46.706 12.214z" fill="#007ea8"/><g fill="#ffff6f"><path d="m261.218 55.434c11.798 0 23.201 1.687 33.988 4.822l-33.987-52.756-33.987 52.756c10.786-3.135 22.188-4.822 33.986-4.822z"/><path d="m361.447 108.198.718.482 1.317-70.043-58.103 25.072c22.863 8.918 42.359 24.558 56.068 44.489z"/><path d="m382.768 175.433 52.341-45.843-72.944-20.91.315 1.043c12.556 18.861 19.98 41.427 20.288 65.71z"/><path d="m382.787 177.003v75.881l58.893-37.94z"/><path d="m382.787 252.884v44.47c0 10.817-1.42 21.302-4.072 31.284l60.828-34.687z"/></g><path d="m449.18 214.944c0-2.549-1.295-4.924-3.438-6.305l-51.57-33.223 45.879-40.183c2.065-1.809 2.977-4.601 2.378-7.279-.6-2.679-2.614-4.816-5.253-5.572l-67.402-19.322 1.209-64.281c.048-2.549-1.202-4.948-3.319-6.369-2.116-1.42-4.809-1.669-7.151-.659l-58.104 25.072c-.152.065-.289.153-.435.228-.138-.291-.284-.58-.462-.855l-33.989-52.758c-1.38-2.143-3.754-3.438-6.304-3.438s-4.924 1.295-6.305 3.438l-33.987 52.756c-1.694 2.63-1.578 6.037.292 8.545 1.871 2.509 5.103 3.59 8.106 2.719 10.327-3.002 21.059-4.524 31.894-4.524 26.07 0 31.528 6.994 37.397 3.998.805 1.688 2.223 3.056 4.037 3.764 42.35 16.52 72.014 57.352 72.615 104.833.003.262.036.519.066.775-.069.732-.047 120.948-.047 121.05 0 9.938-1.285 19.815-3.82 29.359-.775 2.922.278 6.024 2.674 7.868 2.378 1.831 5.647 2.08 8.29.572l60.828-34.687c2.215-1.263 3.637-3.564 3.774-6.11.138-2.546-1.027-4.987-3.093-6.481l-47.863-34.632 49.664-31.995c2.144-1.38 3.439-3.755 3.439-6.304zm-187.961-167.01c-6.017 0-12.005.415-17.927 1.24l17.927-27.826 17.927 27.826c-5.922-.825-11.911-1.24-17.927-1.24zm62.421 16.063 32.125-13.862-.719 38.223c-9.157-9.712-19.73-17.915-31.406-24.361zm96.181 69.013-30.674 26.865c-1.802-13.571-5.742-26.719-11.685-39.008zm-30.606 181.008c.713-5.513 1.072-11.08 1.072-16.663v-29.786l35.429 25.635zm1.072-74.887v-48.375l37.544 24.188z" fill="#f90"/><path d="m421.737 425.364c-19.736-14.531-31.752-34.823-35.713-60.31-3.02-19.43.008-34.759.038-34.907.001-.005.001-.01.002-.014 2.751-10.471 4.222-21.456 4.222-32.779v-120.351c0-71.169-57.899-129.069-129.068-129.069s-129.069 57.9-129.069 129.069v56.463h-35.419c-18.698 0-33.91 15.212-33.91 33.911s15.212 33.911 33.91 33.911h35.484c1.17 38.88 19.618 73.487 47.911 96.399v52.607h-8.129c-17.013 0-30.854 13.841-30.854 30.853s13.842 30.853 30.855 30.853h38.981c7.827 0 15.16-2.933 20.74-8.011 5.48 4.975 12.752 8.011 20.719 8.011h38.981c17.013 0 30.854-13.841 30.854-30.853v-57.416c22.319 19.292 52.732 37.985 87.101 38.408.09.001.18.001.271.001 8.925 0 16.497-5.437 19.339-13.912 2.863-8.541.019-17.516-7.246-22.864zm-343.917-157.987c0-10.427 8.483-18.911 18.91-18.911h35.419v37.822h-35.419c-10.426 0-18.91-8.483-18.91-18.911zm69.329 29.977c0-11.327 0-101.994 0-113.511l17.311-12.458 20.43 14.703c2.617 1.884 6.145 1.884 8.762 0l20.429-14.703 20.43 14.703c2.617 1.884 6.145 1.884 8.762 0l20.43-14.703 20.43 14.703c3.375 2.43 8.06 1.641 10.468-1.707 2.42-3.362 1.656-8.049-1.706-10.468l-24.811-17.856c-2.617-1.884-6.145-1.884-8.762 0l-20.43 14.703-20.43-14.703c-2.617-1.884-6.145-1.884-8.762 0l-20.429 14.703-20.43-14.703c-2.617-1.884-6.145-1.884-8.762 0l-12.287 8.843c6.063-57.229 54.616-101.967 113.427-101.967 62.897 0 114.068 51.171 114.068 114.069v120.352c0 62.839-51.109 114.069-114.068 114.069-62.899 0-114.07-51.171-114.07-114.069zm113.416 129.061v23.879h-8.128c-3.724 0-7.297.664-10.605 1.878v-27.205c6.116.926 12.371 1.416 18.733 1.448zm-49.586 70.585h-38.981c-8.741 0-15.854-7.112-15.854-15.853s7.112-15.853 15.854-15.853h15.629c4.143 0 7.5-3.358 7.5-7.5v-49.551c9.915 5.937 20.524 10.469 31.706 13.544v42.151c-3.463 5.163-5.248 11.227-5.248 17.208 0 3.219.53 6.692 1.677 10.023-2.979 3.657-7.451 5.831-12.283 5.831zm96.293-15.853c0 8.741-7.112 15.853-15.854 15.853h-38.981c-8.785 0-15.854-7.207-15.854-15.853 0-8.874 7.235-15.853 15.854-15.853h15.628c4.143 0 7.5-3.358 7.5-7.5v-32.164c10.541-1.159 21.472-3.752 31.707-7.67zm107.488-37.687c-.293.875-1.518 3.727-5.203 3.679-32.409-.398-61.565-20.036-82.186-38.94 17.813-10.637 32.675-25.311 43.477-42.672 3.142 22.63 13.369 50.839 41.997 71.916 2.846 2.097 2.288 4.907 1.915 6.017z" fill="#007ea8"/></g></svg>
